$MeshFormat
4.1 0 8
$EndMeshFormat
$Entities
4 4 1 0
1 0 0 0 0 
2 1 0 0 0 
3 1 1 0 0 
4 0 1 0 0 
1 0 0 0 1 0 0 1 1 2 1 -2 
2 1 0 0 1 1 0 1 1 2 2 -3 
3 0 1 0 1 1 0 1 1 2 3 -4 
4 0 0 0 0 1 0 1 1 2 4 -1 
1 0 0 0 1 1 0 1 2 4 3 4 1 2 
$EndEntities
$Nodes
9 121 1 121
0 1 0 1
1
0 0 0
0 2 0 1
2
1 0 0
0 3 0 1
3
1 1 0
0 4 0 1
4
0 1 0
1 1 0 9
5
6
7
8
9
10
11
12
13
0.09999999999981414 0 0
0.1999999999995569 0 0
0.299999999999265 0 0
0.3999999999989731 0 0
0.4999999999986921 0 0
0.599999999998945 0 0
0.6999999999992088 0 0
0.7999999999994725 0 0
0.8999999999997362 0 0
1 2 0 9
14
15
16
17
18
19
20
21
22
1 0.09999999999981414 0
1 0.1999999999995569 0
1 0.299999999999265 0
1 0.3999999999989731 0
1 0.4999999999986921 0
1 0.599999999998945 0
1 0.6999999999992088 0
1 0.7999999999994725 0
1 0.8999999999997362 0
1 3 0 9
23
24
25
26
27
28
29
30
31
0.8999999999995836 1 0
0.8 1 0
0.7000000000006938 1 0
0.6000000000013874 1 0
0.5000000000020595 1 0
0.400000000001665 1 0
0.3000000000012487 1 0
0.2000000000008325 1 0
0.1000000000004162 1 0
1 4 0 9
32
33
34
35
36
37
38
39
40
0 0.8999999999995836 0
0 0.8 0
0 0.7000000000006938 0
0 0.6000000000013874 0
0 0.5000000000020595 0
0 0.400000000001665 0
0 0.3000000000012487 0
0 0.2000000000008325 0
0 0.1000000000004162 0
2 1 0 81
41
42
43
44
45
46
47
48
49
50
51
52
53
54
55
56
57
58
59
60
61
62
63
64
65
66
67
68
69
70
71
72
73
74
75
76
77
78
79
80
81
82
83
84
85
86
87
88
89
90
91
92
93
94
95
96
97
98
99
100
101
102
103
104
105
106
107
108
109
110
111
112
113
114
115
116
117
118
119
120
121
0.8999999999995989 0.899999999999721 0
0.8999999999996142 0.7999999999995253 0
0.8999999999996293 0.6999999999993574 0
0.8999999999996446 0.5999999999991892 0
0.89999999999966 0.4999999999990288 0
0.8999999999996751 0.3999999999992423 0
0.8999999999996906 0.2999999999994634 0
0.8999999999997057 0.1999999999996845 0
0.8999999999997208 0.09999999999987436 0
0.7999999999999472 0.8999999999997057 0
0.7999999999998946 0.7999999999995779 0
0.7999999999998415 0.6999999999995059 0
0.7999999999997891 0.5999999999994334 0
0.7999999999997363 0.4999999999993656 0
0.7999999999996836 0.3999999999995114 0
0.7999999999996306 0.2999999999996618 0
0.7999999999995782 0.199999999999812 0
0.7999999999995253 0.09999999999993456 0
0.7000000000005453 0.8999999999996906 0
0.700000000000397 0.7999999999996308 0
0.7000000000002484 0.6999999999996542 0
0.7000000000000999 0.5999999999996777 0
0.6999999999999513 0.4999999999997022 0
0.699999999999803 0.3999999999997808 0
0.6999999999996542 0.2999999999998602 0
0.6999999999995059 0.1999999999999396 0
0.6999999999993571 0.09999999999999476 0
0.6000000000011432 0.8999999999996751 0
0.6000000000008989 0.7999999999996834 0
0.6000000000006547 0.6999999999998028 0
0.6000000000004104 0.5999999999999219 0
0.6000000000001662 0.5000000000000391 0
0.5999999999999219 0.4000000000000499 0
0.5999999999996777 0.3000000000000586 0
0.5999999999994334 0.2000000000000672 0
0.5999999999991892 0.100000000000055 0
0.5000000000017226 0.89999999999966 0
0.500000000001386 0.7999999999997363 0
0.5000000000010492 0.6999999999999513 0
0.5000000000007125 0.6000000000001662 0
0.5000000000003757 0.5000000000003757 0
0.5000000000000391 0.4000000000003191 0
0.4999999999997022 0.3000000000002568 0
0.4999999999993656 0.2000000000001947 0
0.4999999999990288 0.1000000000001152 0
0.4000000000013958 0.8999999999996446 0
0.4000000000011267 0.7999999999997891 0
0.4000000000008574 0.7000000000000999 0
0.4000000000005882 0.6000000000004104 0
0.4000000000003191 0.5000000000007125 0
0.4000000000000499 0.4000000000005883 0
0.3999999999997808 0.3000000000004552 0
0.3999999999995114 0.2000000000003223 0
0.3999999999992423 0.1000000000001754 0
0.3000000000010503 0.8999999999996293 0
0.3000000000008519 0.7999999999998417 0
0.3000000000006536 0.7000000000002484 0
0.3000000000004552 0.6000000000006547 0
0.3000000000002568 0.5000000000010492 0
0.3000000000000584 0.4000000000008574 0
0.2999999999998602 0.3000000000006536 0
0.2999999999996618 0.2000000000004498 0
0.2999999999994634 0.1000000000002356 0
0.2000000000007049 0.8999999999996142 0
0.2000000000005774 0.7999999999998944 0
0.2000000000004499 0.7000000000003967 0
0.2000000000003223 0.6000000000008989 0
0.2000000000001947 0.500000000001386 0
0.2000000000000671 0.4000000000011267 0
0.1999999999999396 0.3000000000008519 0
0.199999999999812 0.2000000000005774 0
0.1999999999996845 0.1000000000002958 0
0.100000000000356 0.8999999999995989 0
0.1000000000002958 0.7999999999999472 0
0.1000000000002356 0.7000000000005453 0
0.1000000000001754 0.6000000000011432 0
0.1000000000001152 0.5000000000017228 0
0.100000000000055 0.4000000000013958 0
0.09999999999999476 0.3000000000010504 0
0.09999999999993456 0.2000000000007049 0
0.09999999999987436 0.100000000000356 0
$EndNodes
$Elements
5 240 1 240
1 1 1 10
1 1 5 
2 5 6 
3 6 7 
4 7 8 
5 8 9 
6 9 10 
7 10 11 
8 11 12 
9 12 13 
10 13 2 
1 2 1 10
11 2 14 
12 14 15 
13 15 16 
14 16 17 
15 17 18 
16 18 19 
17 19 20 
18 20 21 
19 21 22 
20 22 3 
1 3 1 10
21 3 23 
22 23 24 
23 24 25 
24 25 26 
25 26 27 
26 27 28 
27 28 29 
28 29 30 
29 30 31 
30 31 4 
1 4 1 10
31 4 32 
32 32 33 
33 33 34 
34 34 35 
35 35 36 
36 36 37 
37 37 38 
38 38 39 
39 39 40 
40 40 1 
2 1 2 200
41 3 23 22 
42 22 23 41 
43 22 41 21 
44 21 41 42 
45 21 42 20 
46 20 42 43 
47 20 43 19 
48 19 43 44 
49 19 44 18 
50 18 44 45 
51 18 45 17 
52 17 45 46 
53 17 46 16 
54 16 46 47 
55 16 47 15 
56 15 47 48 
57 15 48 14 
58 14 48 49 
59 14 49 2 
60 2 49 13 
61 23 24 41 
62 41 24 50 
63 41 50 42 
64 42 50 51 
65 42 51 43 
66 43 51 52 
67 43 52 44 
68 44 52 53 
69 44 53 45 
70 45 53 54 
71 45 54 46 
72 46 54 55 
73 46 55 47 
74 47 55 56 
75 47 56 48 
76 48 56 57 
77 48 57 49 
78 49 57 58 
79 49 58 13 
80 13 58 12 
81 24 25 50 
82 50 25 59 
83 50 59 51 
84 51 59 60 
85 51 60 52 
86 52 60 61 
87 52 61 53 
88 53 61 62 
89 53 62 54 
90 54 62 63 
91 54 63 55 
92 55 63 64 
93 55 64 56 
94 56 64 65 
95 56 65 57 
96 57 65 66 
97 57 66 58 
98 58 66 67 
99 58 67 12 
100 12 67 11 
101 25 26 59 
102 59 26 68 
103 59 68 60 
104 60 68 69 
105 60 69 61 
106 61 69 70 
107 61 70 62 
108 62 70 71 
109 62 71 63 
110 63 71 72 
111 63 72 64 
112 64 72 73 
113 64 73 65 
114 65 73 74 
115 65 74 66 
116 66 74 75 
117 66 75 67 
118 67 75 76 
119 67 76 11 
120 11 76 10 
121 26 27 68 
122 68 27 77 
123 68 77 69 
124 69 77 78 
125 69 78 70 
126 70 78 79 
127 70 79 71 
128 71 79 80 
129 71 80 72 
130 72 80 81 
131 72 81 73 
132 73 81 82 
133 73 82 74 
134 74 82 83 
135 74 83 75 
136 75 83 84 
137 75 84 76 
138 76 84 85 
139 76 85 10 
140 10 85 9 
141 27 28 77 
142 77 28 86 
143 77 86 78 
144 78 86 87 
145 78 87 79 
146 79 87 88 
147 79 88 80 
148 80 88 89 
149 80 89 81 
150 81 89 90 
151 81 90 82 
152 82 90 91 
153 82 91 83 
154 83 91 92 
155 83 92 84 
156 84 92 93 
157 84 93 85 
158 85 93 94 
159 85 94 9 
160 9 94 8 
161 28 29 86 
162 86 29 95 
163 86 95 87 
164 87 95 96 
165 87 96 88 
166 88 96 97 
167 88 97 89 
168 89 97 98 
169 89 98 90 
170 90 98 99 
171 90 99 91 
172 91 99 100 
173 91 100 92 
174 92 100 101 
175 92 101 93 
176 93 101 102 
177 93 102 94 
178 94 102 103 
179 94 103 8 
180 8 103 7 
181 29 30 95 
182 95 30 104 
183 95 104 96 
184 96 104 105 
185 96 105 97 
186 97 105 106 
187 97 106 98 
188 98 106 107 
189 98 107 99 
190 99 107 108 
191 99 108 100 
192 100 108 109 
193 100 109 101 
194 101 109 110 
195 101 110 102 
196 102 110 111 
197 102 111 103 
198 103 111 112 
199 103 112 7 
200 7 112 6 
201 30 31 104 
202 104 31 113 
203 104 113 105 
204 105 113 114 
205 105 114 106 
206 106 114 115 
207 106 115 107 
208 107 115 116 
209 107 116 108 
210 108 116 117 
211 108 117 109 
212 109 117 118 
213 109 118 110 
214 110 118 119 
215 110 119 111 
216 111 119 120 
217 111 120 112 
218 112 120 121 
219 112 121 6 
220 6 121 5 
221 31 4 113 
222 113 4 32 
223 113 32 114 
224 114 32 33 
225 114 33 115 
226 115 33 34 
227 115 34 116 
228 116 34 35 
229 116 35 117 
230 117 35 36 
231 117 36 118 
232 118 36 37 
233 118 37 119 
234 119 37 38 
235 119 38 120 
236 120 38 39 
237 120 39 121 
238 121 39 40 
239 121 40 5 
240 5 40 1 
$EndElements
