$MeshFormat
4.1 0 8
$EndMeshFormat
$Entities
4 4 1 0
1 0 0 0 0 
2 1 0 0 0 
3 1 1 0 0 
4 0 1 0 0 
1 0 0 0 1 0 0 1 1 2 1 -2 
2 1 0 0 1 1 0 1 1 2 2 -3 
3 0 1 0 1 1 0 1 1 2 3 -4 
4 0 0 0 0 1 0 1 1 2 4 -1 
1 0 0 0 1 1 0 1 2 4 3 4 1 2 
$EndEntities
$Nodes
9 441 1 441
0 1 0 1
1
0 0 0
0 2 0 1
2
1 0 0
0 3 0 1
3
1 1 0
0 4 0 1
4
0 1 0
1 1 0 19
5
6
7
8
9
10
11
12
13
14
15
16
17
18
19
20
21
22
23
0.0499999999998994 0 0
0.09999999999981414 0 0
0.1499999999997029 0 0
0.1999999999995569 0 0
0.2499999999994109 0 0
0.299999999999265 0 0
0.3499999999991191 0 0
0.3999999999989731 0 0
0.4499999999988272 0 0
0.4999999999986921 0 0
0.5499999999988131 0 0
0.599999999998945 0 0
0.6499999999990769 0 0
0.6999999999992088 0 0
0.7499999999993406 0 0
0.7999999999994725 0 0
0.8499999999996044 0 0
0.8999999999997362 0 0
0.9499999999998682 0 0
1 2 0 19
24
25
26
27
28
29
30
31
32
33
34
35
36
37
38
39
40
41
42
1 0.0499999999998994 0
1 0.09999999999981414 0
1 0.1499999999997029 0
1 0.1999999999995569 0
1 0.2499999999994109 0
1 0.299999999999265 0
1 0.3499999999991191 0
1 0.3999999999989731 0
1 0.4499999999988272 0
1 0.4999999999986921 0
1 0.5499999999988131 0
1 0.599999999998945 0
1 0.6499999999990769 0
1 0.6999999999992088 0
1 0.7499999999993406 0
1 0.7999999999994725 0
1 0.8499999999996044 0
1 0.8999999999997362 0
1 0.9499999999998682 0
1 3 0 19
43
44
45
46
47
48
49
50
51
52
53
54
55
56
57
58
59
60
61
0.9499999999997918 1 0
0.8999999999995836 1 0
0.849999999999653 1 0
0.8 1 0
0.7500000000003471 1 0
0.7000000000006938 1 0
0.6500000000010406 1 0
0.6000000000013874 1 0
0.5500000000017343 1 0
0.5000000000020595 1 0
0.450000000001873 1 0
0.400000000001665 1 0
0.3500000000014568 1 0
0.3000000000012487 1 0
0.2500000000010406 1 0
0.2000000000008325 1 0
0.1500000000006244 1 0
0.1000000000004162 1 0
0.0500000000002081 1 0
1 4 0 19
62
63
64
65
66
67
68
69
70
71
72
73
74
75
76
77
78
79
80
0 0.9499999999997918 0
0 0.8999999999995836 0
0 0.849999999999653 0
0 0.8 0
0 0.7500000000003471 0
0 0.7000000000006938 0
0 0.6500000000010406 0
0 0.6000000000013874 0
0 0.5500000000017343 0
0 0.5000000000020595 0
0 0.450000000001873 0
0 0.400000000001665 0
0 0.3500000000014568 0
0 0.3000000000012487 0
0 0.2500000000010406 0
0 0.2000000000008325 0
0 0.1500000000006244 0
0 0.1000000000004162 0
0 0.0500000000002081 0
2 1 0 361
81
82
83
84
85
86
87
88
89
90
91
92
93
94
95
96
97
98
99
100
101
102
103
104
105
106
107
108
109
110
111
112
113
114
115
116
117
118
119
120
121
122
123
124
125
126
127
128
129
130
131
132
133
134
135
136
137
138
139
140
141
142
143
144
145
146
147
148
149
150
151
152
153
154
155
156
157
158
159
160
161
162
163
164
165
166
167
168
169
170
171
172
173
174
175
176
177
178
179
180
181
182
183
184
185
186
187
188
189
190
191
192
193
194
195
196
197
198
199
200
201
202
203
204
205
206
207
208
209
210
211
212
213
214
215
216
217
218
219
220
221
222
223
224
225
226
227
228
229
230
231
232
233
234
235
236
237
238
239
240
241
242
243
244
245
246
247
248
249
250
251
252
253
254
255
256
257
258
259
260
261
262
263
264
265
266
267
268
269
270
271
272
273
274
275
276
277
278
279
280
281
282
283
284
285
286
287
288
289
290
291
292
293
294
295
296
297
298
299
300
301
302
303
304
305
306
307
308
309
310
311
312
313
314
315
316
317
318
319
320
321
322
323
324
325
326
327
328
329
330
331
332
333
334
335
336
337
338
339
340
341
342
343
344
345
346
347
348
349
350
351
352
353
354
355
356
357
358
359
360
361
362
363
364
365
366
367
368
369
370
371
372
373
374
375
376
377
378
379
380
381
382
383
384
385
386
387
388
389
390
391
392
393
394
395
396
397
398
399
400
401
402
403
404
405
406
407
408
409
410
411
412
413
414
415
416
417
418
419
420
421
422
423
424
425
426
427
428
429
430
431
432
433
434
435
436
437
438
439
440
441
0.9499999999997956 0.9499999999998644 0
0.9499999999997993 0.8999999999997286 0
0.9499999999998033 0.8499999999996068 0
0.9499999999998069 0.7999999999994989 0
0.9499999999998111 0.7499999999993909 0
0.9499999999998149 0.699999999999283 0
0.9499999999998187 0.649999999999175 0
0.9499999999998224 0.5999999999990671 0
0.9499999999998262 0.5499999999989592 0
0.9499999999998302 0.4999999999988605 0
0.9499999999998338 0.4499999999989795 0
0.9499999999998375 0.3999999999991077 0
0.9499999999998413 0.3499999999992359 0
0.9499999999998453 0.2999999999993642 0
0.9499999999998491 0.2499999999994924 0
0.9499999999998529 0.1999999999996207 0
0.9499999999998568 0.1499999999997489 0
0.9499999999998606 0.09999999999984424 0
0.9499999999998644 0.04999999999991483 0
0.8999999999995913 0.9499999999998604 0
0.8999999999995989 0.899999999999721 0
0.8999999999996064 0.8499999999996093 0
0.8999999999996142 0.7999999999995253 0
0.8999999999996218 0.7499999999994411 0
0.8999999999996293 0.6999999999993574 0
0.8999999999996369 0.6499999999992732 0
0.8999999999996446 0.5999999999991892 0
0.8999999999996524 0.5499999999991051 0
0.89999999999966 0.4999999999990288 0
0.8999999999996675 0.4499999999991318 0
0.8999999999996751 0.3999999999992423 0
0.8999999999996828 0.3499999999993528 0
0.8999999999996906 0.2999999999994634 0
0.8999999999996982 0.2499999999995739 0
0.8999999999997057 0.1999999999996845 0
0.8999999999997135 0.1499999999997951 0
0.8999999999997208 0.09999999999987436 0
0.8999999999997286 0.04999999999993027 0
0.8499999999996506 0.9499999999998568 0
0.8499999999996481 0.8999999999997133 0
0.8499999999996457 0.8499999999996117 0
0.8499999999996433 0.7999999999995515 0
0.849999999999641 0.7499999999994915 0
0.8499999999996384 0.6999999999994315 0
0.8499999999996362 0.6499999999993713 0
0.8499999999996337 0.5999999999993113 0
0.8499999999996313 0.5499999999992512 0
0.8499999999996286 0.4999999999991973 0
0.8499999999996262 0.4499999999992841 0
0.8499999999996237 0.3999999999993769 0
0.8499999999996215 0.3499999999994697 0
0.8499999999996191 0.2999999999995626 0
0.8499999999996166 0.2499999999996554 0
0.8499999999996142 0.1999999999997483 0
0.8499999999996117 0.1499999999998411 0
0.8499999999996093 0.09999999999990444 0
0.8499999999996068 0.0499999999999457 0
0.7999999999999736 0.9499999999998529 0
0.7999999999999472 0.8999999999997057 0
0.7999999999999208 0.849999999999614 0
0.7999999999998946 0.7999999999995779 0
0.7999999999998681 0.7499999999995419 0
0.7999999999998415 0.6999999999995059 0
0.7999999999998153 0.6499999999994694 0
0.7999999999997891 0.5999999999994334 0
0.7999999999997627 0.5499999999993973 0
0.7999999999997363 0.4999999999993656 0
0.7999999999997098 0.4499999999994363 0
0.7999999999996836 0.3999999999995114 0
0.7999999999996572 0.3499999999995865 0
0.7999999999996306 0.2999999999996618 0
0.7999999999996044 0.2499999999997369 0
0.7999999999995782 0.199999999999812 0
0.7999999999995515 0.1499999999998872 0
0.7999999999995253 0.09999999999993456 0
0.7999999999994987 0.04999999999996113 0
0.7500000000002967 0.9499999999998491 0
0.7500000000002465 0.8999999999996982 0
0.7500000000001961 0.8499999999996166 0
0.7500000000001457 0.7999999999996044 0
0.7500000000000955 0.7499999999995921 0
0.7500000000000451 0.6999999999995801 0
0.7499999999999949 0.6499999999995678 0
0.7499999999999445 0.5999999999995556 0
0.7499999999998941 0.5499999999995434 0
0.7499999999998439 0.4999999999995339 0
0.7499999999997935 0.4499999999995886 0
0.7499999999997431 0.3999999999996461 0
0.7499999999996929 0.3499999999997035 0
0.7499999999996425 0.299999999999761 0
0.7499999999995921 0.2499999999998184 0
0.7499999999995419 0.1999999999998758 0
0.7499999999994917 0.1499999999999332 0
0.7499999999994413 0.09999999999996467 0
0.7499999999993909 0.04999999999997656 0
0.7000000000006197 0.9499999999998453 0
0.7000000000005453 0.8999999999996906 0
0.7000000000004711 0.8499999999996188 0
0.700000000000397 0.7999999999996308 0
0.7000000000003226 0.7499999999996427 0
0.7000000000002484 0.6999999999996542 0
0.7000000000001743 0.649999999999666 0
0.7000000000000999 0.5999999999996777 0
0.7000000000000255 0.5499999999996895 0
0.6999999999999513 0.4999999999997022 0
0.6999999999998772 0.4499999999997409 0
0.699999999999803 0.3999999999997808 0
0.6999999999997286 0.3499999999998203 0
0.6999999999996542 0.2999999999998602 0
0.6999999999995801 0.2499999999998999 0
0.6999999999995059 0.1999999999999396 0
0.6999999999994315 0.1499999999999794 0
0.6999999999993571 0.09999999999999476 0
0.699999999999283 0.04999999999999201 0
0.6500000000009425 0.9499999999998413 0
0.6500000000008443 0.8999999999996828 0
0.650000000000746 0.8499999999996215 0
0.6500000000006478 0.7999999999996572 0
0.6500000000005497 0.7499999999996929 0
0.6500000000004513 0.6999999999997286 0
0.6500000000003532 0.6499999999997643 0
0.650000000000255 0.5999999999997998 0
0.6500000000001569 0.5499999999998356 0
0.6500000000000588 0.4999999999998705 0
0.6499999999999606 0.4499999999998933 0
0.6499999999998625 0.3999999999999153 0
0.6499999999997643 0.3499999999999373 0
0.649999999999666 0.2999999999999593 0
0.6499999999995678 0.2499999999999813 0
0.6499999999994697 0.2000000000000034 0
0.6499999999993713 0.1500000000000254 0
0.6499999999992732 0.1000000000000248 0
0.649999999999175 0.05000000000000744 0
0.6000000000012653 0.9499999999998378 0
0.6000000000011432 0.8999999999996751 0
0.600000000001021 0.8499999999996237 0
0.6000000000008989 0.7999999999996834 0
0.6000000000007768 0.7499999999997431 0
0.6000000000006547 0.6999999999998028 0
0.6000000000005326 0.6499999999998625 0
0.6000000000004104 0.5999999999999219 0
0.6000000000002883 0.5499999999999817 0
0.6000000000001662 0.5000000000000391 0
0.6000000000000441 0.4500000000000455 0
0.5999999999999219 0.4000000000000499 0
0.5999999999997998 0.3500000000000542 0
0.5999999999996777 0.3000000000000586 0
0.5999999999995556 0.2500000000000628 0
0.5999999999994334 0.2000000000000672 0
0.5999999999993113 0.1500000000000715 0
0.5999999999991892 0.100000000000055 0
0.5999999999990671 0.05000000000002287 0
0.5500000000015882 0.9499999999998338 0
0.5500000000014421 0.8999999999996675 0
0.5500000000012962 0.8499999999996264 0
0.5500000000011501 0.7999999999997098 0
0.550000000001004 0.7499999999997935 0
0.5500000000008579 0.6999999999998772 0
0.5500000000007118 0.6499999999999606 0
0.5500000000005657 0.6000000000000441 0
0.5500000000004196 0.5500000000001278 0
0.5500000000002737 0.5000000000002074 0
0.5500000000001276 0.4500000000001978 0
0.5499999999999815 0.4000000000001844 0
0.5499999999998356 0.3500000000001711 0
0.5499999999996895 0.3000000000001577 0
0.5499999999995434 0.2500000000001442 0
0.5499999999993973 0.200000000000131 0
0.5499999999992512 0.1500000000001176 0
0.5499999999991053 0.1000000000000851 0
0.549999999998959 0.05000000000003832 0
0.5000000000018912 0.94999999999983 0
0.5000000000017226 0.89999999999966 0
0.5000000000015543 0.8499999999996286 0
0.500000000001386 0.7999999999997363 0
0.5000000000012177 0.7499999999998439 0
0.5000000000010492 0.6999999999999513 0
0.5000000000008809 0.6500000000000588 0
0.5000000000007125 0.6000000000001662 0
0.5000000000005442 0.5500000000002737 0
0.5000000000003757 0.5000000000003757 0
0.5000000000002074 0.4500000000003501 0
0.5000000000000391 0.4000000000003191 0
0.4999999999998705 0.350000000000288 0
0.4999999999997022 0.3000000000002568 0
0.4999999999995339 0.2500000000002257 0
0.4999999999993656 0.2000000000001947 0
0.4999999999991973 0.1500000000001637 0
0.4999999999990288 0.1000000000001152 0
0.4999999999988605 0.05000000000005375 0
0.4500000000017207 0.9499999999998262 0
0.4500000000015684 0.8999999999996522 0
0.4500000000014162 0.8499999999996313 0
0.4500000000012638 0.7999999999997627 0
0.4500000000011116 0.7499999999998941 0
0.4500000000009593 0.7000000000000255 0
0.450000000000807 0.6500000000001569 0
0.4500000000006547 0.6000000000002883 0
0.4500000000005023 0.5500000000004196 0
0.4500000000003501 0.5000000000005442 0
0.4500000000001979 0.4500000000005023 0
0.4500000000000455 0.4000000000004537 0
0.4499999999998933 0.3500000000004048 0
0.4499999999997409 0.3000000000003561 0
0.4499999999995886 0.2500000000003072 0
0.4499999999994363 0.2000000000002585 0
0.4499999999992841 0.1500000000002097 0
0.4499999999991318 0.1000000000001453 0
0.4499999999989795 0.05000000000006918 0
0.4000000000015305 0.9499999999998222 0
0.4000000000013958 0.8999999999996446 0
0.4000000000012612 0.8499999999996335 0
0.4000000000011267 0.7999999999997891 0
0.400000000000992 0.7499999999999445 0
0.4000000000008574 0.7000000000000999 0
0.4000000000007229 0.650000000000255 0
0.4000000000005882 0.6000000000004104 0
0.4000000000004537 0.5500000000005657 0
0.4000000000003191 0.5000000000007125 0
0.4000000000001845 0.4500000000006547 0
0.4000000000000499 0.4000000000005883 0
0.3999999999999152 0.3500000000005218 0
0.3999999999997808 0.3000000000004552 0
0.3999999999996462 0.2500000000003887 0
0.3999999999995114 0.2000000000003223 0
0.3999999999993769 0.1500000000002558 0
0.3999999999992423 0.1000000000001754 0
0.3999999999991077 0.05000000000008462 0
0.3500000000013399 0.9499999999998187 0
0.350000000001223 0.8999999999996371 0
0.3500000000011062 0.8499999999996359 0
0.3500000000009892 0.7999999999998153 0
0.3500000000008724 0.7499999999999949 0
0.3500000000007555 0.700000000000174 0
0.3500000000006386 0.6500000000003532 0
0.3500000000005217 0.6000000000005326 0
0.3500000000004048 0.5500000000007118 0
0.350000000000288 0.5000000000008809 0
0.3500000000001711 0.450000000000807 0
0.3500000000000542 0.4000000000007229 0
0.3499999999999374 0.3500000000006386 0
0.3499999999998203 0.3000000000005544 0
0.3499999999997035 0.2500000000004702 0
0.3499999999995865 0.2000000000003861 0
0.3499999999994697 0.1500000000003019 0
0.3499999999993528 0.1000000000002055 0
0.3499999999992359 0.05000000000010005 0
0.3000000000011495 0.9499999999998147 0
0.3000000000010503 0.8999999999996293 0
0.3000000000009511 0.8499999999996384 0
0.3000000000008519 0.7999999999998417 0
0.3000000000007529 0.7500000000000451 0
0.3000000000006536 0.7000000000002484 0
0.3000000000005544 0.6500000000004515 0
0.3000000000004552 0.6000000000006547 0
0.3000000000003561 0.5500000000008579 0
0.3000000000002568 0.5000000000010492 0
0.3000000000001577 0.4500000000009593 0
0.3000000000000584 0.4000000000008574 0
0.2999999999999593 0.3500000000007555 0
0.2999999999998602 0.3000000000006536 0
0.2999999999997609 0.2500000000005517 0
0.2999999999996618 0.2000000000004498 0
0.2999999999995625 0.150000000000348 0
0.2999999999994634 0.1000000000002356 0
0.2999999999993642 0.05000000000011549 0
0.2500000000009591 0.9499999999998109 0
0.2500000000008776 0.8999999999996218 0
0.2500000000007961 0.8499999999996408 0
0.2500000000007147 0.7999999999998681 0
0.2500000000006332 0.7500000000000955 0
0.2500000000005517 0.7000000000003226 0
0.2500000000004702 0.6500000000005497 0
0.2500000000003888 0.6000000000007768 0
0.2500000000003073 0.550000000001004 0
0.2500000000002258 0.5000000000012175 0
0.2500000000001442 0.4500000000011116 0
0.2500000000000628 0.400000000000992 0
0.2499999999999813 0.3500000000008724 0
0.2499999999998999 0.3000000000007528 0
0.2499999999998184 0.2500000000006332 0
0.2499999999997369 0.2000000000005137 0
0.2499999999996554 0.150000000000394 0
0.2499999999995739 0.1000000000002657 0
0.2499999999994924 0.05000000000013093 0
0.2000000000007687 0.9499999999998071 0
0.2000000000007049 0.8999999999996142 0
0.2000000000006412 0.8499999999996433 0
0.2000000000005774 0.7999999999998944 0
0.2000000000005136 0.7500000000001459 0
0.2000000000004499 0.7000000000003967 0
0.2000000000003861 0.6500000000006478 0
0.2000000000003223 0.6000000000008989 0
0.2000000000002585 0.5500000000011501 0
0.2000000000001947 0.500000000001386 0
0.200000000000131 0.4500000000012638 0
0.2000000000000671 0.4000000000011267 0
0.2000000000000033 0.3500000000009892 0
0.1999999999999396 0.3000000000008519 0
0.1999999999998758 0.2500000000007147 0
0.199999999999812 0.2000000000005774 0
0.1999999999997483 0.1500000000004401 0
0.1999999999996845 0.1000000000002958 0
0.1999999999996207 0.05000000000014636 0
0.1500000000005783 0.9499999999998031 0
0.1500000000005323 0.8999999999996064 0
0.1500000000004861 0.8499999999996457 0
0.1500000000004401 0.799999999999921 0
0.150000000000394 0.7500000000001961 0
0.150000000000348 0.7000000000004709 0
0.1500000000003019 0.6500000000007462 0
0.1500000000002558 0.600000000001021 0
0.1500000000002097 0.5500000000012962 0
0.1500000000001637 0.5000000000015543 0
0.1500000000001176 0.4500000000014162 0
0.1500000000000715 0.4000000000012612 0
0.1500000000000254 0.3500000000011062 0
0.1499999999999793 0.3000000000009512 0
0.1499999999999332 0.2500000000007961 0
0.1499999999998872 0.2000000000006412 0
0.1499999999998411 0.1500000000004862 0
0.149999999999795 0.1000000000003259 0
0.1499999999997489 0.0500000000001618 0
0.1000000000003861 0.9499999999997996 0
0.100000000000356 0.8999999999995989 0
0.1000000000003259 0.8499999999996481 0
0.1000000000002958 0.7999999999999472 0
0.1000000000002657 0.7500000000002462 0
0.1000000000002356 0.7000000000005453 0
0.1000000000002055 0.6500000000008443 0
0.1000000000001754 0.6000000000011432 0
0.1000000000001453 0.5500000000014423 0
0.1000000000001152 0.5000000000017228 0
0.1000000000000851 0.4500000000015684 0
0.100000000000055 0.4000000000013958 0
0.1000000000000248 0.350000000001223 0
0.09999999999999476 0.3000000000010504 0
0.09999999999996464 0.2500000000008776 0
0.09999999999993456 0.2000000000007049 0
0.09999999999990444 0.1500000000005323 0
0.09999999999987436 0.100000000000356 0
0.09999999999984424 0.05000000000017724 0
0.05000000000019267 0.9499999999997956 0
0.05000000000017722 0.8999999999995911 0
0.05000000000016179 0.8499999999996506 0
0.05000000000014636 0.7999999999999738 0
0.05000000000013091 0.7500000000002969 0
0.05000000000011548 0.7000000000006197 0
0.05000000000010005 0.6500000000009425 0
0.05000000000008462 0.6000000000012653 0
0.05000000000006918 0.5500000000015884 0
0.05000000000005375 0.5000000000018912 0
0.05000000000003832 0.4500000000017207 0
0.05000000000002289 0.4000000000015305 0
0.05000000000000744 0.3500000000013399 0
0.049999999999992 0.3000000000011495 0
0.04999999999997656 0.2500000000009591 0
0.04999999999996113 0.2000000000007687 0
0.0499999999999457 0.1500000000005783 0
0.04999999999993027 0.1000000000003861 0
0.04999999999991483 0.05000000000019267 0
$EndNodes
$Elements
5 880 1 880
1 1 1 20
1 1 5 
2 5 6 
3 6 7 
4 7 8 
5 8 9 
6 9 10 
7 10 11 
8 11 12 
9 12 13 
10 13 14 
11 14 15 
12 15 16 
13 16 17 
14 17 18 
15 18 19 
16 19 20 
17 20 21 
18 21 22 
19 22 23 
20 23 2 
1 2 1 20
21 2 24 
22 24 25 
23 25 26 
24 26 27 
25 27 28 
26 28 29 
27 29 30 
28 30 31 
29 31 32 
30 32 33 
31 33 34 
32 34 35 
33 35 36 
34 36 37 
35 37 38 
36 38 39 
37 39 40 
38 40 41 
39 41 42 
40 42 3 
1 3 1 20
41 3 43 
42 43 44 
43 44 45 
44 45 46 
45 46 47 
46 47 48 
47 48 49 
48 49 50 
49 50 51 
50 51 52 
51 52 53 
52 53 54 
53 54 55 
54 55 56 
55 56 57 
56 57 58 
57 58 59 
58 59 60 
59 60 61 
60 61 4 
1 4 1 20
61 4 62 
62 62 63 
63 63 64 
64 64 65 
65 65 66 
66 66 67 
67 67 68 
68 68 69 
69 69 70 
70 70 71 
71 71 72 
72 72 73 
73 73 74 
74 74 75 
75 75 76 
76 76 77 
77 77 78 
78 78 79 
79 79 80 
80 80 1 
2 1 2 800
81 3 43 42 
82 42 43 81 
83 42 81 41 
84 41 81 82 
85 41 82 40 
86 40 82 83 
87 40 83 39 
88 39 83 84 
89 39 84 38 
90 38 84 85 
91 38 85 37 
92 37 85 86 
93 37 86 36 
94 36 86 87 
95 36 87 35 
96 35 87 88 
97 35 88 34 
98 34 88 89 
99 34 89 33 
100 33 89 90 
101 33 90 32 
102 32 90 91 
103 32 91 31 
104 31 91 92 
105 31 92 30 
106 30 92 93 
107 30 93 29 
108 29 93 94 
109 29 94 28 
110 28 94 95 
111 28 95 27 
112 27 95 96 
113 27 96 26 
114 26 96 97 
115 26 97 25 
116 25 97 98 
117 25 98 24 
118 24 98 99 
119 24 99 2 
120 2 99 23 
121 43 44 81 
122 81 44 100 
123 81 100 82 
124 82 100 101 
125 82 101 83 
126 83 101 102 
127 83 102 84 
128 84 102 103 
129 84 103 85 
130 85 103 104 
131 85 104 86 
132 86 104 105 
133 86 105 87 
134 87 105 106 
135 87 106 88 
136 88 106 107 
137 88 107 89 
138 89 107 108 
139 89 108 90 
140 90 108 109 
141 90 109 91 
142 91 109 110 
143 91 110 92 
144 92 110 111 
145 92 111 93 
146 93 111 112 
147 93 112 94 
148 94 112 113 
149 94 113 95 
150 95 113 114 
151 95 114 96 
152 96 114 115 
153 96 115 97 
154 97 115 116 
155 97 116 98 
156 98 116 117 
157 98 117 99 
158 99 117 118 
159 99 118 23 
160 23 118 22 
161 44 45 100 
162 100 45 119 
163 100 119 101 
164 101 119 120 
165 101 120 102 
166 102 120 121 
167 102 121 103 
168 103 121 122 
169 103 122 104 
170 104 122 123 
171 104 123 105 
172 105 123 124 
173 105 124 106 
174 106 124 125 
175 106 125 107 
176 107 125 126 
177 107 126 108 
178 108 126 127 
179 108 127 109 
180 109 127 128 
181 109 128 110 
182 110 128 129 
183 110 129 111 
184 111 129 130 
185 111 130 112 
186 112 130 131 
187 112 131 113 
188 113 131 132 
189 113 132 114 
190 114 132 133 
191 114 133 115 
192 115 133 134 
193 115 134 116 
194 116 134 135 
195 116 135 117 
196 117 135 136 
197 117 136 118 
198 118 136 137 
199 118 137 22 
200 22 137 21 
201 45 46 119 
202 119 46 138 
203 119 138 120 
204 120 138 139 
205 120 139 121 
206 121 139 140 
207 121 140 122 
208 122 140 141 
209 122 141 123 
210 123 141 142 
211 123 142 124 
212 124 142 143 
213 124 143 125 
214 125 143 144 
215 125 144 126 
216 126 144 145 
217 126 145 127 
218 127 145 146 
219 127 146 128 
220 128 146 147 
221 128 147 129 
222 129 147 148 
223 129 148 130 
224 130 148 149 
225 130 149 131 
226 131 149 150 
227 131 150 132 
228 132 150 151 
229 132 151 133 
230 133 151 152 
231 133 152 134 
232 134 152 153 
233 134 153 135 
234 135 153 154 
235 135 154 136 
236 136 154 155 
237 136 155 137 
238 137 155 156 
239 137 156 21 
240 21 156 20 
241 46 47 138 
242 138 47 157 
243 138 157 139 
244 139 157 158 
245 139 158 140 
246 140 158 159 
247 140 159 141 
248 141 159 160 
249 141 160 142 
250 142 160 161 
251 142 161 143 
252 143 161 162 
253 143 162 144 
254 144 162 163 
255 144 163 145 
256 145 163 164 
257 145 164 146 
258 146 164 165 
259 146 165 147 
260 147 165 166 
261 147 166 148 
262 148 166 167 
263 148 167 149 
264 149 167 168 
265 149 168 150 
266 150 168 169 
267 150 169 151 
268 151 169 170 
269 151 170 152 
270 152 170 171 
271 152 171 153 
272 153 171 172 
273 153 172 154 
274 154 172 173 
275 154 173 155 
276 155 173 174 
277 155 174 156 
278 156 174 175 
279 156 175 20 
280 20 175 19 
281 47 48 157 
282 157 48 176 
283 157 176 158 
284 158 176 177 
285 158 177 159 
286 159 177 178 
287 159 178 160 
288 160 178 179 
289 160 179 161 
290 161 179 180 
291 161 180 162 
292 162 180 181 
293 162 181 163 
294 163 181 182 
295 163 182 164 
296 164 182 183 
297 164 183 165 
298 165 183 184 
299 165 184 166 
300 166 184 185 
301 166 185 167 
302 167 185 186 
303 167 186 168 
304 168 186 187 
305 168 187 169 
306 169 187 188 
307 169 188 170 
308 170 188 189 
309 170 189 171 
310 171 189 190 
311 171 190 172 
312 172 190 191 
313 172 191 173 
314 173 191 192 
315 173 192 174 
316 174 192 193 
317 174 193 175 
318 175 193 194 
319 175 194 19 
320 19 194 18 
321 48 49 176 
322 176 49 195 
323 176 195 177 
324 177 195 196 
325 177 196 178 
326 178 196 197 
327 178 197 179 
328 179 197 198 
329 179 198 180 
330 180 198 199 
331 180 199 181 
332 181 199 200 
333 181 200 182 
334 182 200 201 
335 182 201 183 
336 183 201 202 
337 183 202 184 
338 184 202 203 
339 184 203 185 
340 185 203 204 
341 185 204 186 
342 186 204 205 
343 186 205 187 
344 187 205 206 
345 187 206 188 
346 188 206 207 
347 188 207 189 
348 189 207 208 
349 189 208 190 
350 190 208 209 
351 190 209 191 
352 191 209 210 
353 191 210 192 
354 192 210 211 
355 192 211 193 
356 193 211 212 
357 193 212 194 
358 194 212 213 
359 194 213 18 
360 18 213 17 
361 49 50 195 
362 195 50 214 
363 195 214 196 
364 196 214 215 
365 196 215 197 
366 197 215 216 
367 197 216 198 
368 198 216 217 
369 198 217 199 
370 199 217 218 
371 199 218 200 
372 200 218 219 
373 200 219 201 
374 201 219 220 
375 201 220 202 
376 202 220 221 
377 202 221 203 
378 203 221 222 
379 203 222 204 
380 204 222 223 
381 204 223 205 
382 205 223 224 
383 205 224 206 
384 206 224 225 
385 206 225 207 
386 207 225 226 
387 207 226 208 
388 208 226 227 
389 208 227 209 
390 209 227 228 
391 209 228 210 
392 210 228 229 
393 210 229 211 
394 211 229 230 
395 211 230 212 
396 212 230 231 
397 212 231 213 
398 213 231 232 
399 213 232 17 
400 17 232 16 
401 50 51 214 
402 214 51 233 
403 214 233 215 
404 215 233 234 
405 215 234 216 
406 216 234 235 
407 216 235 217 
408 217 235 236 
409 217 236 218 
410 218 236 237 
411 218 237 219 
412 219 237 238 
413 219 238 220 
414 220 238 239 
415 220 239 221 
416 221 239 240 
417 221 240 222 
418 222 240 241 
419 222 241 223 
420 223 241 242 
421 223 242 224 
422 224 242 243 
423 224 243 225 
424 225 243 244 
425 225 244 226 
426 226 244 245 
427 226 245 227 
428 227 245 246 
429 227 246 228 
430 228 246 247 
431 228 247 229 
432 229 247 248 
433 229 248 230 
434 230 248 249 
435 230 249 231 
436 231 249 250 
437 231 250 232 
438 232 250 251 
439 232 251 16 
440 16 251 15 
441 51 52 233 
442 233 52 252 
443 233 252 234 
444 234 252 253 
445 234 253 235 
446 235 253 254 
447 235 254 236 
448 236 254 255 
449 236 255 237 
450 237 255 256 
451 237 256 238 
452 238 256 257 
453 238 257 239 
454 239 257 258 
455 239 258 240 
456 240 258 259 
457 240 259 241 
458 241 259 260 
459 241 260 242 
460 242 260 261 
461 242 261 243 
462 243 261 262 
463 243 262 244 
464 244 262 263 
465 244 263 245 
466 245 263 264 
467 245 264 246 
468 246 264 265 
469 246 265 247 
470 247 265 266 
471 247 266 248 
472 248 266 267 
473 248 267 249 
474 249 267 268 
475 249 268 250 
476 250 268 269 
477 250 269 251 
478 251 269 270 
479 251 270 15 
480 15 270 14 
481 52 53 252 
482 252 53 271 
483 252 271 253 
484 253 271 272 
485 253 272 254 
486 254 272 273 
487 254 273 255 
488 255 273 274 
489 255 274 256 
490 256 274 275 
491 256 275 257 
492 257 275 276 
493 257 276 258 
494 258 276 277 
495 258 277 259 
496 259 277 278 
497 259 278 260 
498 260 278 279 
499 260 279 261 
500 261 279 280 
501 261 280 262 
502 262 280 281 
503 262 281 263 
504 263 281 282 
505 263 282 264 
506 264 282 283 
507 264 283 265 
508 265 283 284 
509 265 284 266 
510 266 284 285 
511 266 285 267 
512 267 285 286 
513 267 286 268 
514 268 286 287 
515 268 287 269 
516 269 287 288 
517 269 288 270 
518 270 288 289 
519 270 289 14 
520 14 289 13 
521 53 54 271 
522 271 54 290 
523 271 290 272 
524 272 290 291 
525 272 291 273 
526 273 291 292 
527 273 292 274 
528 274 292 293 
529 274 293 275 
530 275 293 294 
531 275 294 276 
532 276 294 295 
533 276 295 277 
534 277 295 296 
535 277 296 278 
536 278 296 297 
537 278 297 279 
538 279 297 298 
539 279 298 280 
540 280 298 299 
541 280 299 281 
542 281 299 300 
543 281 300 282 
544 282 300 301 
545 282 301 283 
546 283 301 302 
547 283 302 284 
548 284 302 303 
549 284 303 285 
550 285 303 304 
551 285 304 286 
552 286 304 305 
553 286 305 287 
554 287 305 306 
555 287 306 288 
556 288 306 307 
557 288 307 289 
558 289 307 308 
559 289 308 13 
560 13 308 12 
561 54 55 290 
562 290 55 309 
563 290 309 291 
564 291 309 310 
565 291 310 292 
566 292 310 311 
567 292 311 293 
568 293 311 312 
569 293 312 294 
570 294 312 313 
571 294 313 295 
572 295 313 314 
573 295 314 296 
574 296 314 315 
575 296 315 297 
576 297 315 316 
577 297 316 298 
578 298 316 317 
579 298 317 299 
580 299 317 318 
581 299 318 300 
582 300 318 319 
583 300 319 301 
584 301 319 320 
585 301 320 302 
586 302 320 321 
587 302 321 303 
588 303 321 322 
589 303 322 304 
590 304 322 323 
591 304 323 305 
592 305 323 324 
593 305 324 306 
594 306 324 325 
595 306 325 307 
596 307 325 326 
597 307 326 308 
598 308 326 327 
599 308 327 12 
600 12 327 11 
601 55 56 309 
602 309 56 328 
603 309 328 310 
604 310 328 329 
605 310 329 311 
606 311 329 330 
607 311 330 312 
608 312 330 331 
609 312 331 313 
610 313 331 332 
611 313 332 314 
612 314 332 333 
613 314 333 315 
614 315 333 334 
615 315 334 316 
616 316 334 335 
617 316 335 317 
618 317 335 336 
619 317 336 318 
620 318 336 337 
621 318 337 319 
622 319 337 338 
623 319 338 320 
624 320 338 339 
625 320 339 321 
626 321 339 340 
627 321 340 322 
628 322 340 341 
629 322 341 323 
630 323 341 342 
631 323 342 324 
632 324 342 343 
633 324 343 325 
634 325 343 344 
635 325 344 326 
636 326 344 345 
637 326 345 327 
638 327 345 346 
639 327 346 11 
640 11 346 10 
641 56 57 328 
642 328 57 347 
643 328 347 329 
644 329 347 348 
645 329 348 330 
646 330 348 349 
647 330 349 331 
648 331 349 350 
649 331 350 332 
650 332 350 351 
651 332 351 333 
652 333 351 352 
653 333 352 334 
654 334 352 353 
655 334 353 335 
656 335 353 354 
657 335 354 336 
658 336 354 355 
659 336 355 337 
660 337 355 356 
661 337 356 338 
662 338 356 357 
663 338 357 339 
664 339 357 358 
665 339 358 340 
666 340 358 359 
667 340 359 341 
668 341 359 360 
669 341 360 342 
670 342 360 361 
671 342 361 343 
672 343 361 362 
673 343 362 344 
674 344 362 363 
675 344 363 345 
676 345 363 364 
677 345 364 346 
678 346 364 365 
679 346 365 10 
680 10 365 9 
681 57 58 347 
682 347 58 366 
683 347 366 348 
684 348 366 367 
685 348 367 349 
686 349 367 368 
687 349 368 350 
688 350 368 369 
689 350 369 351 
690 351 369 370 
691 351 370 352 
692 352 370 371 
693 352 371 353 
694 353 371 372 
695 353 372 354 
696 354 372 373 
697 354 373 355 
698 355 373 374 
699 355 374 356 
700 356 374 375 
701 356 375 357 
702 357 375 376 
703 357 376 358 
704 358 376 377 
705 358 377 359 
706 359 377 378 
707 359 378 360 
708 360 378 379 
709 360 379 361 
710 361 379 380 
711 361 380 362 
712 362 380 381 
713 362 381 363 
714 363 381 382 
715 363 382 364 
716 364 382 383 
717 364 383 365 
718 365 383 384 
719 365 384 9 
720 9 384 8 
721 58 59 366 
722 366 59 385 
723 366 385 367 
724 367 385 386 
725 367 386 368 
726 368 386 387 
727 368 387 369 
728 369 387 388 
729 369 388 370 
730 370 388 389 
731 370 389 371 
732 371 389 390 
733 371 390 372 
734 372 390 391 
735 372 391 373 
736 373 391 392 
737 373 392 374 
738 374 392 393 
739 374 393 375 
740 375 393 394 
741 375 394 376 
742 376 394 395 
743 376 395 377 
744 377 395 396 
745 377 396 378 
746 378 396 397 
747 378 397 379 
748 379 397 398 
749 379 398 380 
750 380 398 399 
751 380 399 381 
752 381 399 400 
753 381 400 382 
754 382 400 401 
755 382 401 383 
756 383 401 402 
757 383 402 384 
758 384 402 403 
759 384 403 8 
760 8 403 7 
761 59 60 385 
762 385 60 404 
763 385 404 386 
764 386 404 405 
765 386 405 387 
766 387 405 406 
767 387 406 388 
768 388 406 407 
769 388 407 389 
770 389 407 408 
771 389 408 390 
772 390 408 409 
773 390 409 391 
774 391 409 410 
775 391 410 392 
776 392 410 411 
777 392 411 393 
778 393 411 412 
779 393 412 394 
780 394 412 413 
781 394 413 395 
782 395 413 414 
783 395 414 396 
784 396 414 415 
785 396 415 397 
786 397 415 416 
787 397 416 398 
788 398 416 417 
789 398 417 399 
790 399 417 418 
791 399 418 400 
792 400 418 419 
793 400 419 401 
794 401 419 420 
795 401 420 402 
796 402 420 421 
797 402 421 403 
798 403 421 422 
799 403 422 7 
800 7 422 6 
801 60 61 404 
802 404 61 423 
803 404 423 405 
804 405 423 424 
805 405 424 406 
806 406 424 425 
807 406 425 407 
808 407 425 426 
809 407 426 408 
810 408 426 427 
811 408 427 409 
812 409 427 428 
813 409 428 410 
814 410 428 429 
815 410 429 411 
816 411 429 430 
817 411 430 412 
818 412 430 431 
819 412 431 413 
820 413 431 432 
821 413 432 414 
822 414 432 433 
823 414 433 415 
824 415 433 434 
825 415 434 416 
826 416 434 435 
827 416 435 417 
828 417 435 436 
829 417 436 418 
830 418 436 437 
831 418 437 419 
832 419 437 438 
833 419 438 420 
834 420 438 439 
835 420 439 421 
836 421 439 440 
837 421 440 422 
838 422 440 441 
839 422 441 6 
840 6 441 5 
841 61 4 423 
842 423 4 62 
843 423 62 424 
844 424 62 63 
845 424 63 425 
846 425 63 64 
847 425 64 426 
848 426 64 65 
849 426 65 427 
850 427 65 66 
851 427 66 428 
852 428 66 67 
853 428 67 429 
854 429 67 68 
855 429 68 430 
856 430 68 69 
857 430 69 431 
858 431 69 70 
859 431 70 432 
860 432 70 71 
861 432 71 433 
862 433 71 72 
863 433 72 434 
864 434 72 73 
865 434 73 435 
866 435 73 74 
867 435 74 436 
868 436 74 75 
869 436 75 437 
870 437 75 76 
871 437 76 438 
872 438 76 77 
873 438 77 439 
874 439 77 78 
875 439 78 440 
876 440 78 79 
877 440 79 441 
878 441 79 80 
879 441 80 5 
880 5 80 1 
$EndElements
